<svg width="0" height="0" class="hidden"><symbol fill="none" xmlns="http://www.w3.org/2000/svg" viewBox="0 0 34 34" id="phone"><circle cx="17" cy="17" r="17" fill="#214571"></circle><path fill-rule="evenodd" clip-rule="evenodd" d="M25.3612 10.4401C25.1899 10.0582 24.8312 9.84766 24.3518 9.84766C24.0023 9.84766 23.6957 9.95858 23.6599 9.9721C23.5577 10.0112 13.4296 13.8815 9.27586 15.5864C8.9116 15.7352 8.67604 15.9451 8.57456 16.211C8.41937 16.6219 8.7103 17.0445 8.98716 17.1669C10.019 17.6212 12.1662 18.2523 12.8388 18.446C13.0609 19.1834 13.8357 21.7552 14.1966 22.8569C14.2912 23.1438 14.5685 23.3151 14.9385 23.3151C14.9933 23.3151 15.0281 23.3112 15.0281 23.3112C15.1275 23.3001 15.214 23.2491 15.2766 23.1771C15.3296 23.1164 15.3662 23.0412 15.3722 22.9567L15.5868 19.8499C15.9929 20.1547 16.584 20.5978 17.2373 21.0862C18.5294 22.0519 20.069 23.1975 20.9303 23.8201C21.2364 24.0414 21.5322 24.1532 21.8105 24.1532C22.4342 24.1532 22.7925 23.619 22.9099 23.1619C23.6236 20.384 24.6703 15.1341 25.296 11.9975L25.4331 11.3112C25.5198 10.8777 25.4453 10.6277 25.3612 10.4401ZM14.8712 19.0941L14.6805 21.8532C14.2105 20.354 13.5207 18.0528 13.5125 18.0251C13.5101 18.0173 13.5031 18.0125 13.5003 18.0051L13.4984 17.9884L21.4173 12.8327C21.4173 12.8327 21.957 12.4625 22.162 12.4175C22.4386 12.3571 22.5049 12.4667 22.4553 12.5332C22.2638 12.7904 21.3559 13.5738 21.3559 13.5738L15.0433 18.801L15.0435 18.8045C14.9453 18.8695 14.8796 18.9745 14.8712 19.0941Z" fill="#002047"></path></symbol>
<symbol fill="none" xmlns="http://www.w3.org/2000/svg" viewBox="0 0 34 34" id="inst"><circle cx="17" cy="17" r="17" fill="#214571"></circle><path fill-rule="evenodd" clip-rule="evenodd" d="M17.0009 10.5441C19.1039 10.5441 19.353 10.552 20.1833 10.59C20.9511 10.6248 21.3683 10.7533 21.6459 10.8613C22.0135 11.0043 22.2759 11.1746 22.5515 11.4502C22.827 11.7259 22.9978 11.9883 23.1406 12.3557C23.2485 12.6335 23.3767 13.0504 23.4119 13.8185C23.4494 14.6489 23.4578 14.898 23.4578 17.0009C23.4578 19.1039 23.4494 19.353 23.4119 20.1833C23.3767 20.9513 23.2485 21.3681 23.1406 21.6459C22.9978 22.0135 22.827 22.2757 22.5515 22.5513C22.2759 22.827 22.0135 22.9976 21.6459 23.1404C21.3683 23.2485 20.9511 23.3767 20.1833 23.4118C19.353 23.4496 19.1041 23.4578 17.0009 23.4578C14.8978 23.4578 14.6489 23.4496 13.8183 23.4118C13.0506 23.3767 12.6335 23.2485 12.3561 23.1404C11.9883 22.9976 11.7261 22.827 11.4504 22.5513C11.175 22.2757 11.0041 22.0135 10.8613 21.6459C10.7535 21.3681 10.6252 20.9513 10.5898 20.1833C10.5522 19.353 10.5443 19.1039 10.5443 17.0009C10.5443 14.898 10.5522 14.6489 10.5898 13.8185C10.6252 13.0504 10.7535 12.6335 10.8613 12.3557C11.0041 11.9883 11.175 11.7259 11.4504 11.4502C11.7261 11.1746 11.9883 11.0043 12.3561 10.8613C12.6335 10.7533 13.0506 10.6248 13.8183 10.59C14.6489 10.552 14.8981 10.5441 17.0009 10.5441ZM22.1502 12.7967C22.1502 13.3185 21.727 13.7419 21.2052 13.7419C20.683 13.7419 20.2598 13.3185 20.2598 12.7967C20.2598 12.2748 20.683 11.8515 21.2052 11.8515C21.727 11.8515 22.1502 12.2748 22.1502 12.7967ZM17.0009 12.9565C14.7674 12.9565 12.9567 14.7672 12.9567 17.0009C12.9567 19.2344 14.7674 21.0452 17.0009 21.0452C19.2346 21.0452 21.0452 19.2344 21.0452 17.0009C21.0452 14.7672 19.2346 12.9565 17.0009 12.9565ZM17.0009 19.6261C15.5509 19.6261 14.3756 18.4507 14.3756 17.0009C14.3756 15.5509 15.5509 14.3757 17.0009 14.3757C18.4509 14.3757 19.6261 15.5509 19.6261 17.0009C19.6261 18.4507 18.4509 19.6261 17.0009 19.6261ZM17.0009 9.125C14.8618 9.125 14.5939 9.13426 13.7537 9.17241C12.9154 9.21056 12.343 9.34389 11.842 9.53852C11.3241 9.73981 10.8848 10.0091 10.4468 10.4469C10.0091 10.8848 9.73981 11.3241 9.5387 11.842C9.34389 12.343 9.21075 12.9154 9.1726 13.7537C9.13408 14.5937 9.125 14.8619 9.125 17.0009C9.125 19.14 9.13408 19.4081 9.1726 20.2481C9.21075 21.0865 9.34389 21.6587 9.5387 22.1598C9.73981 22.6778 10.0091 23.1169 10.4468 23.5548C10.8848 23.9928 11.3241 24.262 11.842 24.4633C12.343 24.6578 12.9154 24.7911 13.7537 24.8294C14.5939 24.8676 14.8618 24.8767 17.0009 24.8767C19.1398 24.8767 19.408 24.8676 20.2482 24.8294C21.0863 24.7911 21.6589 24.6578 22.1598 24.4633C22.6778 24.262 23.117 23.9928 23.5548 23.5548C23.9928 23.1169 24.262 22.6778 24.4633 22.1598C24.658 21.6587 24.7911 21.0865 24.8294 20.2481C24.8678 19.4081 24.8767 19.14 24.8767 17.0009C24.8767 14.8619 24.8678 14.5937 24.8294 13.7537C24.7911 12.9154 24.658 12.343 24.4633 11.842C24.262 11.3241 23.9928 10.8848 23.5548 10.4469C23.117 10.0091 22.6778 9.73981 22.1598 9.53852C21.6589 9.34389 21.0863 9.21056 20.2482 9.17241C19.408 9.13426 19.1398 9.125 17.0009 9.125Z" fill="#002047"></path></symbol>
<symbol fill="none" xmlns="http://www.w3.org/2000/svg" viewBox="0 0 34 34" id="telega"><circle cx="17" cy="17" r="17" fill="#214571"></circle><path fill-rule="evenodd" clip-rule="evenodd" d="M14.9066 20.4123L14.0311 19.3586C13.7788 19.0544 13.597 18.7279 13.0294 19.1249C12.1798 19.7185 11.3302 20.1452 10.4101 20.6126C10.0614 20.7907 9.93894 20.9428 10.028 21.3695C10.3248 22.7904 10.4101 23.0909 11.831 23.7142C12.5582 24.0332 13.1778 24.0815 14.0608 23.8774C18.8986 22.7533 22.7533 18.9023 23.8774 14.0608C24.0815 13.1778 24.0332 12.5582 23.7142 11.831C23.0909 10.4064 22.7867 10.3211 21.3695 10.028C20.9428 9.93894 20.7907 10.0614 20.6126 10.4101C20.1452 11.3302 19.7185 12.1798 19.1249 13.0294C18.7279 13.597 19.0581 13.7788 19.3586 14.0311L20.4123 14.9066C20.6868 15.1329 20.7128 15.4223 20.5941 15.7265C19.7333 17.9154 17.9154 19.7333 15.7265 20.5941C15.4223 20.7128 15.1367 20.6868 14.9066 20.4123Z" fill="#002047"></path></symbol>

 <symbol  xmlns="http://www.w3.org/2000/svg" viewBox="0 0 150 29" id="Makita">
    <path  clip-rule="evenodd" d="M142.968 23.5598L148.577 8.2924H133.088C131.083 8.2924 128.903 9.8723 128.191 11.8016L123.962 23.1652H115.683L119.69 12.8549H123.918L125.92 7.41468H121.781L124.631 0H117.284L114.526 7.41468H109.674L107.671 12.8549H112.523L108.695 23.1652H100.238L106.158 7.76577H98.9473L93.1158 23.5163H86.4398L84.5706 17.5929L95.3412 8.07339H87.6864L79.0055 15.7505H78.3389L83.9464 0.526634H77.2262L68.7251 23.5598H62.5375L68.1009 8.2924H52.6556C50.6525 8.2924 48.4729 9.8723 47.7147 11.8016L43.264 23.9109H37.4784L43.264 8.24893H30.5784L31.9591 4.47556H19.5398L20.8763 0.877724H0V7.45815H11.751L3.78413 29H10.4602L17.0922 11.1011H22.8337L16.2017 29H22.9236L28.1308 14.8728H34.1403L28.9314 29H39.6138L43.0418 25.5342C43.0859 27.2462 43.9764 29 45.4893 29H51.6328L55.3271 25.1397C55.2372 26.9386 56.1718 29 57.7746 29H63.9181L68.2349 24.8321L66.7219 29H73.4421L77.4043 18.2951H78.1608L81.5429 29H88.7092L92.7597 24.7886C92.5816 26.6744 93.5619 28.8679 95.2089 28.8679H104.154L108.295 24.394C107.939 26.3234 108.917 28.8679 110.698 28.8679H119.646L123.518 24.7C123.206 26.5875 124.184 29 125.92 29H132.063L135.757 25.1397C135.667 26.9386 136.604 29 138.207 29H150V23.5598H142.968ZM109.184 0H101.795L99.5697 6.01032H106.87L109.184 0ZM55.6392 23.4294H50.3421L53.8582 13.9082H59.1553L55.6392 23.4294ZM136.069 23.4294H130.772L134.333 13.9082H139.586L136.069 23.4294Z" ></path>
  </symbol>
  <symbol  xmlns="http://www.w3.org/2000/svg" viewBox="0 0 150 23" id="Dremel">
    <path fill-rule="evenodd" clip-rule="evenodd" d="M18.8494 0.279548C25.6884 0.279548 28.3462 21.8263 17.2567 23H0V0.279548C0 0.279548 18.3185 0.279548 18.8494 0.279548ZM131.946 0H137.788V17.6707H150V23H131.946V0ZM75.1331 0H83.6275L90.2663 14.5849L96.9034 0H105.929V23H100.353V6.17156L92.3899 23H88.6719L80.7084 6.73066V23H75.1331V0ZM109.38 0H129.292V4.76665H114.956V9.25555H128.23V13.4631H114.956V18.5111H129.292V22.7187H109.38V0V0ZM52.3011 0H72.2124V4.76665H57.8764V9.25555H71.1506V13.4631H58.141V18.5111H72.2124V22.7187H52.3011V0V0ZM26.5483 23V0.279548H44.8668C46.9735 0.650487 47.7775 1.23288 48.5848 3.36533C48.5848 3.36533 49.3803 5.60888 49.1157 7.57289C49.1157 11.1891 48.3084 11.5547 46.4595 13.1818C46.4595 13.1818 47.5213 14.024 48.0539 14.5849C49.4634 16.0758 48.3966 19.4035 48.8494 21.3155C49.1157 22.1578 49.6466 22.7187 49.6466 22.7187H44.336C43.1079 22.7187 43.5405 19.9106 43.5405 19.072C43.5405 17.4503 43.4675 16.178 41.6815 15.7067H32.3899V23H26.5483ZM32.3899 4.76665V10.6587H42.2124C44.5836 9.82182 44.2562 5.582 41.9478 4.76665H32.3899ZM5.83988 5.04799V18.2316C5.83988 18.2316 16.1949 18.2316 16.7258 18.2316C19.5754 18.2316 19.8112 5.04799 16.7258 5.04799C15.9286 5.04799 5.83988 5.04799 5.83988 5.04799Z" ></path>
  </symbol>
  <symbol  xmlns="http://www.w3.org/2000/svg" viewBox="0 0 150 32" id="Sthil">
    <path d="M144.353 4.31621V2.48438H145.559C146.207 2.48438 146.83 2.65548 146.83 3.39526C146.83 4.29272 146.033 4.31621 145.225 4.31621H144.353ZM37.994 1.88719H15.8608C12.6992 1.88719 10.6044 3.89012 9.61893 6.56406L6.68966 14.5288C5.38362 18.0751 7.22565 20.6953 10.7587 20.6953H22.2926C22.7591 20.6953 23.1085 21.1583 22.9202 21.6733L22.1824 23.6762C21.9806 24.2248 21.2987 24.6525 20.8356 24.6525H2.70368L0 32H23.3799C25.958 32 28.2309 30.819 29.5726 27.1705L32.356 19.6049C33.6773 16.0201 31.7674 13.4502 28.543 13.4502H16.9582C16.3154 13.4502 16.0881 12.9872 16.2967 12.4236L17.0345 10.419C17.2805 9.74963 17.7876 9.23632 18.612 9.23632H35.2886L37.994 1.88719ZM38.9659 32H48.2134L56.589 9.23632H66.2012L68.9048 1.88719H40.5382L37.8346 9.23632H47.3432L38.9659 32ZM60.6819 32H69.9819L81.0612 1.88719H71.7612L60.6819 32ZM87.5558 1.88719H96.4403L92.5256 12.5259H103.591L107.506 1.88719H116.65L105.569 32H96.4268L100.983 19.6167H89.9169L85.3593 32H76.4748L87.5558 1.88719ZM123.041 1.88719H132.34L123.964 24.6525H143.653L140.949 32H111.96L123.041 1.88719ZM144.353 4.86978H145.461L146.967 7.21996H147.737L146.146 4.86978C146.867 4.74733 147.488 4.32963 147.488 3.39526C147.488 2.44747 146.954 1.9308 145.746 1.9308H143.695V7.21996H144.353V4.86978ZM145.375 0.65087C147.613 0.65087 149.279 2.38541 149.279 4.57622C149.279 6.76536 147.613 8.4999 145.375 8.4999C143.136 8.4999 141.468 6.76536 141.468 4.57622C141.468 2.38541 143.136 0.65087 145.375 0.65087ZM145.375 0C142.762 0 140.747 2.00461 140.747 4.57622C140.747 7.14783 142.762 9.15244 145.375 9.15244C147.987 9.15244 150 7.14783 150 4.57622C150 2.00461 147.987 0 145.375 0Z" ></path>
  </symbol>
  <symbol fill="none" xmlns="http://www.w3.org/2000/svg" viewBox="0 0 150 37" id="Bosch">
    <path d="M22.7217 20.6516H12.4715V15.5266H22.7217V20.6516ZM12.2522 15.3051L12.2598 15.2973H12.3808C12.3259 15.3284 12.2806 15.375 12.2522 15.4294V15.3051ZM12.2522 23.528V23.392H12.3827C12.3278 23.4231 12.2825 23.4697 12.2522 23.528ZM7.73585 18.2378C7.73585 15.5558 8.73592 13.4043 9.59419 12.0458C9.59041 12.1644 9.58474 12.4248 9.58474 12.4248V23.7709C9.58474 23.7709 9.59041 24.0119 9.59419 24.148C8.32757 22.1617 7.73585 20.2824 7.73585 18.2378ZM25.5933 24.0333V12.1896C25.5933 12.1877 25.5877 11.9525 25.5801 11.8165C26.79 13.8377 27.4555 16.1155 27.4555 18.2378C27.4555 20.9218 26.4667 22.9391 25.5801 24.4084C25.5858 24.2879 25.5933 24.0333 25.5933 24.0333ZM22.7217 7.26286V12.555H12.4715V7.26286C12.4715 6.84306 12.4035 6.28334 11.8117 6.28334C11.6397 6.28334 11.4677 6.33192 11.3183 6.42521C7.26512 8.95565 4.8472 13.3713 4.8472 18.2378C4.8472 22.9838 7.20463 27.1779 11.3183 29.7453C11.4677 29.8386 11.6397 29.8871 11.8117 29.8871C12.3051 29.8871 12.4715 29.4246 12.4715 29.2147V23.6213H22.7217V29.2147C22.7217 29.823 23.2624 29.893 23.6707 29.893C23.7501 29.893 23.8692 29.8833 24.0129 29.7939C27.9186 27.3956 30.346 22.9683 30.346 18.2378C30.346 13.4043 27.9186 8.76713 24.1679 6.42521C24.0186 6.33192 23.8465 6.28334 23.6707 6.28334C23.1471 6.28334 22.7217 6.72257 22.7217 7.26286ZM7.05339 29.0767C4.14016 26.1576 2.53325 22.3094 2.53325 18.2378C2.53325 9.61644 9.35599 2.60235 17.7422 2.60235C21.7008 2.60235 25.4459 4.25238 28.2854 7.24925C31.106 10.2286 32.6581 14.1312 32.6581 18.2378C32.6581 26.694 25.9677 33.572 17.7422 33.572C13.7457 33.572 9.9496 31.9764 7.05339 29.0767ZM0 18.2378C0 23.0849 1.84889 27.6094 5.20261 30.9794C8.53931 34.3319 12.9914 36.1763 17.7422 36.1763C27.3628 36.1763 35.1913 28.1283 35.1913 18.2378C35.1913 13.3557 33.3973 8.77685 30.1362 5.34657C26.8581 1.8988 22.457 0 17.7422 0C7.96082 0 0 8.18213 0 18.2378H0Z" fill="#2B2A29"></path>
    <path fill-rule="evenodd" clip-rule="evenodd" d="M63.3913 23.3364C63.3913 27.3245 59.8164 29.9483 56.2037 29.9483H44.4297V6.26269H55.2263C59.3759 6.26269 62.3818 8.39667 62.3818 12.7696C62.3818 16.5147 59.2095 17.6342 59.2095 17.6342C59.2095 17.6692 63.3913 18.6487 63.3913 23.3364ZM150 29.9483H143.928V20.6077H136.945V29.9483H130.904V6.26269H136.945V14.9755H143.928V6.26269H150V29.9483ZM128.39 25.3655C126.031 28.8638 123.838 30.508 119.282 30.508C112.803 30.508 108.617 24.9806 108.617 17.949C108.617 11.2672 112.398 5.70491 119.35 5.70491C123.163 5.70491 125.895 7.24222 128.224 10.8474L123.567 14.029C122.622 12.3517 121.407 11.3722 119.382 11.3722C116.818 11.3722 114.355 13.7277 114.355 17.949C114.355 22.6776 117.021 24.8407 119.55 24.8407C121.747 24.8407 122.756 23.7212 123.704 22.112L128.39 25.3655ZM106.479 22.7767C106.479 27.9892 101.889 30.508 97.5695 30.508C92.5748 30.508 90.0132 28.5489 87.9885 26.0651L91.6636 22.355C93.2194 24.3859 95.2423 25.4004 97.5033 25.4004C99.3579 25.4004 100.607 24.4559 100.607 23.0566C100.607 21.5523 99.5034 21.0839 96.49 20.4328L95.6809 20.2579C92.0492 19.4747 89.066 17.3543 89.066 13.1213C89.066 8.46858 92.7449 5.66992 97.6016 5.66992C101.721 5.66992 104.385 7.4871 106.007 9.37814L102.428 13.0164C101.315 11.79 99.6282 10.8125 97.7037 10.8125C96.3898 10.8125 94.902 11.4402 94.902 13.0164C94.902 14.4507 96.4503 14.9696 98.4126 15.3952L99.2236 15.5682C102.507 16.2795 106.479 17.3193 106.479 22.7767ZM86.6916 18.089C86.6916 25.0506 82.8085 30.508 76.0935 30.508C69.4125 30.508 65.4992 25.0506 65.4992 18.089C65.4992 11.1623 69.4125 5.66992 76.0935 5.66992C82.8085 5.66992 86.6916 11.1623 86.6916 18.089ZM81.022 18.089C81.022 14.3788 79.3678 11.3722 76.0935 11.3722C72.8211 11.3722 71.2009 14.3788 71.2009 18.089C71.2009 21.8302 72.8211 24.8407 76.0935 24.8407C79.3678 24.8407 81.022 21.8302 81.022 18.089ZM56.5099 13.4362C56.5099 12.1068 55.6308 11.1953 54.3169 11.1953H50.0974V15.6051H54.2149C55.7008 15.6051 56.5099 14.4857 56.5099 13.4362ZM57.2529 22.6718C57.2529 21.3074 56.2736 20.3629 54.2149 20.3629H50.0974V25.0156H54.3169C56.0354 25.0156 57.2529 24.3859 57.2529 22.6718Z" fill="#E31E24"></path>
  </symbol>


  <symbol  xmlns="http://www.w3.org/2000/svg" viewBox="0 0 150 37" id="pecanta"><path d="M144.244 4.4668V2.57037H145.47C146.134 2.57037 146.767 2.74669 146.767 3.51075C146.767 4.43937 145.954 4.4668 145.13 4.4668H144.244ZM8.34505 0.415334C11.1918 0.415334 13.3122 1.17156 14.7024 2.68792C16.0965 4.20428 16.7916 6.42592 16.7916 9.35285V18.5764C16.7916 21.5073 16.0965 23.7289 14.7024 25.2453C13.3122 26.7577 11.1918 27.5178 8.34505 27.5178H5.6662V36.5886H0V0.415334H8.34505ZM42.7288 0H49.9766C52.6281 0 54.7993 2.17855 54.7993 4.83903V8.99629H49.4767V5.34057H43.2287V31.6594H49.4767V28.0037H54.7993V32.1649C54.7993 34.8254 52.6281 37 49.9766 37H42.7288C40.0773 37 37.9061 34.8254 37.9061 32.1649V4.83903C37.9061 2.17855 40.0773 0 42.7288 0V0ZM5.6662 5.57958V22.3497H8.34505C9.2354 22.3497 9.92268 22.1067 10.403 21.6248C10.8833 21.1429 11.1254 20.2495 11.1254 18.9408V8.99238C11.1254 7.68368 10.8833 6.7864 10.403 6.30446C9.92268 5.82251 9.2354 5.57958 8.34505 5.57958H5.6662ZM25.082 15.6573H32.8608V20.8255H25.082V31.4204H34.868V36.5886H19.4158V0.415334H34.868V5.57958H25.082V15.6573ZM76.5854 36.5886H70.8685L69.8883 30.0255H62.0822L61.102 36.5886H56.7557L62.5234 0.415334H70.8177L76.5854 36.5886ZM62.8007 25.116H69.1151L65.8935 5.19559L62.8007 25.116ZM84.8758 36.5886H79.2135V0.415334H84.8758V15.9159H91.3152V0.415334H97.0829V36.5886H91.3152V21.0841H84.8758V36.5886ZM99.5548 0.415334H117.065V5.57958H111.145V36.5886H105.479V5.57958H99.5548V0.415334ZM137.875 36.5886H132.158L131.178 30.0255H124.227L123.247 36.5886H118.045L123.813 0.415334H132.107L137.875 36.5886ZM124.945 25.116H130.405L127.675 6.82167L124.945 25.116ZM144.244 5.03886H145.373L146.907 7.46818H147.692L146.068 5.03886C146.806 4.91348 147.438 4.47856 147.438 3.51075C147.438 2.53119 146.892 1.99831 145.662 1.99831H143.568V7.46818H144.244V5.03886ZM145.283 0.673938C147.563 0.673938 149.266 2.4685 149.266 4.73324C149.266 6.99799 147.563 8.79255 145.283 8.79255C142.998 8.79255 141.3 6.99799 141.3 4.73324C141.3 2.4685 142.998 0.673938 145.283 0.673938ZM145.283 0C142.619 0 140.565 2.07275 140.565 4.73324C140.565 7.39373 142.619 9.46648 145.283 9.46648C147.946 9.46648 150 7.39373 150 4.73324C150 2.07275 147.946 0 145.283 0V0Z" ></path></symbol>
  <symbol  xmlns="http://www.w3.org/2000/svg" viewBox="0 0 150 24" id="Patriot"><path fill-rule="evenodd" clip-rule="evenodd" d="M25.3787 23.2463H21.1811L35.6275 0.75882H39.4843L44.5479 23.2463H35.914L35.4517 20.8193H26.5877L25.3787 23.2463ZM33.2096 10.8474L28.8384 17.387H34.7593L33.2096 10.8474ZM0 23.2463L4.94422 0.75882H24.9164C24.9164 0.75882 24.7428 8.30117 22.0385 16.039H9.20693L7.87863 23.2463H0ZM16.4583 4.33071H11.7984L10.2487 12.8124H14.7979C17.0942 8.43064 16.4583 4.33071 16.4583 4.33071ZM47.5474 23.2463H55.5997L59.4565 4.33071H65.2689L65.8484 0.75882H46.6228L45.9869 4.33071H51.4585L47.5474 23.2463ZM131.688 23.2463H139.751L143.608 4.33071H149.421L150 0.75882H130.777L130.138 4.33071H135.61L131.688 23.2463ZM71.3743 23.2463H63.5434L68.2663 0.75882H89.2716C89.2716 0.75882 89.391 8.16155 86.2178 15.7039H82.2416L85.6361 23.2463H77.0586L73.6619 15.7674H72.7395L71.3743 23.2463ZM73.4406 12.7464H79.1423C79.1423 12.7464 80.9871 9.3801 80.9871 4.12508H75.407L73.4406 12.7464ZM97.0113 23.2463H90.0182L94.5956 0.75882H101.68L97.0113 23.2463ZM117.307 0.0149936C124.558 0.284091 127.612 3.17562 127.612 3.17562L124.042 20.6137C124.042 20.6137 120.591 23.6448 112.76 23.9799C104.927 24.315 102.049 20.3446 102.049 20.3446L105.498 3.17562C105.509 3.18832 110.047 -0.254104 117.307 0.0149936ZM119.779 4.12508C119.779 4.12508 119.493 3.04615 116.955 3.04615C114.42 3.04615 113.018 3.71636 113.018 3.71636L109.76 20.2151C109.76 20.2151 110.507 20.8828 112.925 20.8828C115.343 20.8828 116.265 20.2151 116.265 20.2151L119.779 4.12508Z" ></path></symbol>
  <symbol  xmlns="http://www.w3.org/2000/svg" viewBox="0 0 150 32" id="metabo"><path d="M136.286 24.9805C138.662 24.9805 140.588 22.8886 140.588 20.3082C140.588 17.7256 138.662 15.6336 136.286 15.6336C133.91 15.6336 131.985 17.7256 131.985 20.3082C131.985 22.8886 133.91 24.9805 136.286 24.9805ZM147.211 2.42911C147.686 2.41399 147.796 2.21732 147.796 1.96663C147.796 1.72458 147.686 1.59924 147.284 1.59924H146.678V2.42911H147.211ZM146.678 2.93698V4.33739H146.175V1.09353H147.22C147.811 1.09353 148.424 1.25562 148.424 1.98824C148.424 2.36428 148.198 2.65603 147.766 2.74464V2.75977C148.211 2.84837 148.263 3.04504 148.314 3.39946C148.357 3.70634 148.394 4.04348 148.503 4.33739H147.861C147.824 4.1537 147.775 3.94839 147.753 3.75821C147.714 3.47942 147.714 3.22225 147.568 3.06881C147.443 2.93698 147.278 2.94995 147.101 2.93698H146.678ZM149.518 2.75328C149.518 1.50415 148.512 0.484094 147.263 0.484094C146.007 0.484094 144.99 1.50415 144.99 2.75328C144.99 4.01539 146.007 5.03544 147.263 5.03544C148.512 5.03544 149.518 4.01539 149.518 2.75328ZM144.508 2.75328C144.508 1.23401 145.736 0 147.263 0C148.781 0 150 1.23401 150 2.75328C150 4.28553 148.781 5.51953 147.263 5.51953C145.736 5.51953 144.508 4.28553 144.508 2.75328ZM50.1735 18.24C50.1735 16.2798 48.5178 14.6611 46.503 14.6611C44.7441 14.6611 42.9014 16.2885 42.9014 18.24H50.1735ZM50.0595 25.0475H57.4842C56.6714 28.3022 52.472 31.9761 46.5654 31.9999C40.6221 32.0237 35.1455 27.8765 35.1455 20.7296C35.1455 14.7389 39.3449 9.55653 46.5654 9.45712C53.5386 9.36203 57.9573 14.7735 57.9852 20.7296C57.9874 21.3542 57.925 21.8491 57.8218 22.4477H42.9229C42.9766 25.0972 44.3958 26.1454 46.4729 26.2902C47.5201 26.3637 49.1478 26.0892 50.0595 25.0475ZM112.113 24.9114C114.472 24.9114 116.383 22.8367 116.383 20.2736C116.383 17.7105 114.472 15.6336 112.113 15.6336C109.756 15.6336 107.845 17.7105 107.845 20.2736C107.845 22.8367 109.756 24.9114 112.113 24.9114ZM113.868 9.6581C119.161 9.6581 123.455 14.5985 123.455 20.695C123.455 26.7894 119.161 31.7298 113.868 31.7298C111.717 31.7298 109.754 30.9798 108.154 29.6032V31.0512H99.0245V24.8574H100.734V8.19718H99.0245V2.18923H108.012V11.6852C109.629 10.2567 111.672 9.6581 113.868 9.6581ZM83.4182 24.9265C85.7791 24.9265 87.695 22.8453 87.695 20.2801C87.695 17.7148 85.7791 15.6336 83.4182 15.6336C81.055 15.6336 79.1413 17.7148 79.1413 20.2801C79.1413 22.8453 81.055 24.9265 83.4182 24.9265ZM87.5122 11.6572V10.2005H96.513V16.2712H94.8015V24.8574H96.4872V31.0512L87.3445 31.0555L87.3509 29.5967C85.749 30.9755 83.803 31.7298 81.6507 31.7298C76.346 31.7298 72.0499 26.7829 72.0499 20.6777C72.0499 14.5747 76.346 9.62569 81.6507 9.62569C83.8482 9.62569 85.8931 10.2243 87.5122 11.6572ZM68.6504 3.514H61.6191V10.2222H59.6882V16.2712H61.6191V24.8574H59.6366V31.0512H70.6737V24.8574H68.7127V16.2712H70.5684V10.2222H68.6504V3.514ZM9.03311 10.207H0V16.2712H1.95456V24.8574H0V31.0512H9.20943V18.0152C9.20083 16.8612 9.57497 15.6985 11.2715 15.6985C12.9895 15.6985 13.3615 16.8612 13.3551 18.0303V31.0512H20.4465V18.0303C20.4487 16.8612 20.8207 15.6985 22.4935 15.6985C24.1879 15.6985 24.5599 16.8612 24.5685 18.0303V31.0512H33.8016V24.8574H31.8449V16.2712C31.8449 11.5729 29.4044 9.32961 25.9726 9.32961C23.573 9.32961 21.5539 10.2632 19.9692 12.0418C18.9973 10.4231 17.8749 9.32961 14.7635 9.32961C12.2004 9.35771 10.5039 10.2438 9.03311 11.9662V10.207ZM124.769 20.5308C124.769 14.3456 129.893 9.33177 136.262 9.33177C142.631 9.33177 147.755 14.3456 147.755 20.5308C147.755 26.7159 142.631 31.7298 136.262 31.7298C129.893 31.7298 124.769 26.7159 124.769 20.5308Z" ></path></symbol>
  <symbol  xmlns="http://www.w3.org/2000/svg" viewBox="0 0 150 40" id="Karher">
  <!-- <path d="M75.3422 0.240432C78.1891 -0.220816 81.1505 -0.0202732 83.9067 0.858103C83.6938 2.55068 83.4888 4.24326 83.2798 5.93584C81.5132 5.44251 79.6678 5.22993 77.8382 5.32218C77.018 5.37432 76.1702 5.49465 75.4447 5.91178C74.9124 6.21259 74.5023 6.71395 74.2736 7.28349C73.9345 8.10972 73.8517 9.01217 73.8122 9.89455C73.7886 10.8692 73.7886 11.8478 73.9108 12.8145C74.0054 13.5003 74.1671 14.1942 74.522 14.7918C74.7744 15.217 75.1411 15.5699 75.5709 15.8025C76.1702 16.1314 76.8524 16.2638 77.5267 16.332C79.4707 16.5044 81.458 16.2437 83.2798 15.5218C83.5085 17.1101 83.7293 18.7024 83.9619 20.2947C81.2451 21.4899 78.1931 21.8268 75.2712 21.3816C73.9187 21.1691 72.582 20.76 71.399 20.05C70.3265 19.4123 69.4038 18.5179 68.7295 17.455C67.8856 16.1395 67.4243 14.5993 67.2153 13.0471C67.0221 11.5671 67.0063 10.055 67.1995 8.57097C67.4006 7.05888 67.8541 5.55882 68.6743 4.27134C69.317 3.25659 70.1885 2.39426 71.194 1.75653C72.4479 0.954364 73.8872 0.489105 75.3422 0.240432ZM0 0.388834C2.12931 0.388834 4.25468 0.388834 6.384 0.388834C6.384 2.98385 6.384 5.58289 6.384 8.17791C7.06222 8.17791 7.74045 8.17791 8.41867 8.17791C10.063 5.58289 11.7073 2.98787 13.3476 0.388834C15.7924 0.384823 18.2411 0.388834 20.6898 0.388834C18.4659 3.66971 16.238 6.95059 14.014 10.2315C15.7372 12.9067 17.4604 15.5819 19.1875 18.2572C19.8066 19.2358 20.4532 20.1944 21.0565 21.1811C18.4698 21.1811 15.8831 21.1811 13.2964 21.1811C11.6442 18.4738 9.992 15.7664 8.33981 13.0591C7.68524 13.0591 7.03462 13.0591 6.38005 13.0631C6.38399 15.7705 6.38005 18.4738 6.384 21.1811C4.25468 21.1811 2.12931 21.1811 0 21.1811C0 14.2503 0 7.31959 0 0.388834ZM21.6362 0.384823C23.2213 0.384823 24.8025 0.384823 26.3877 0.384823C26.3838 1.85279 26.3877 3.32478 26.3838 4.79676C24.8025 4.79275 23.2213 4.79676 21.6362 4.79275C21.6401 3.32478 21.6362 1.85279 21.6362 0.384823ZM29.1913 0.388834C31.6558 0.388834 34.1163 0.388834 36.5808 0.388834C39.341 7.3236 42.1052 14.2543 44.8654 21.1851C42.4758 21.1851 40.0823 21.1851 37.6928 21.1851C37.3379 20.022 36.983 18.8588 36.6321 17.6917C34.069 17.6957 31.5059 17.6876 28.9468 17.6957C28.5919 18.8588 28.2213 20.022 27.8625 21.1851C25.8988 21.1851 23.9311 21.1851 21.9674 21.1851C21.6835 21.1851 21.3956 21.1771 21.1078 21.2052C21.1393 20.9565 21.2498 20.7279 21.3404 20.4952C23.9587 13.7931 26.573 7.09097 29.1913 0.388834ZM32.752 5.49866C32.0619 7.97737 31.2417 10.4079 30.4768 12.8626C32.0383 12.8626 33.5958 12.8626 35.1573 12.8626C34.6171 11.1058 34.0808 9.34507 33.5446 7.58831C33.3119 6.8062 33.1187 6.01606 32.8782 5.23394C32.8151 5.31416 32.7756 5.4024 32.752 5.49866ZM39.4199 0.384823C41.005 0.380812 42.5902 0.384823 44.1714 0.384823C44.1714 1.85279 44.1714 3.32478 44.1714 4.79275C42.5902 4.79275 41.005 4.79275 39.4199 4.79275C39.4199 3.32478 39.4199 1.85279 39.4199 0.384823ZM46.8606 0.388834C50.1217 0.392845 53.3827 0.376801 56.6397 0.396855C58.1933 0.440975 59.7588 0.629485 61.2177 1.191C62.3258 1.61615 63.3668 2.29399 64.0765 3.27264C64.7784 4.22321 65.1215 5.39839 65.2043 6.57357C65.3344 8.21401 64.9992 9.93867 64.0213 11.2783C63.4299 12.1045 62.59 12.7423 61.6436 13.0872C63.3786 15.7905 65.1294 18.4858 66.8683 21.1851C64.3604 21.1851 61.8486 21.1891 59.3408 21.1851C58.1933 18.9029 57.034 16.6248 55.8866 14.3426C55.0072 14.3346 54.124 14.3386 53.2446 14.3386C53.2446 16.6208 53.2407 18.9029 53.2446 21.1851C51.1153 21.1851 48.99 21.1851 46.8606 21.1851C46.8606 14.2543 46.8606 7.31959 46.8606 0.388834ZM53.2446 5.24196C53.2446 6.82224 53.2446 8.39851 53.2446 9.97878C54.258 9.97477 55.2714 9.99081 56.2888 9.97076C56.8921 9.93867 57.5624 9.86247 58.0119 9.40924C58.4575 8.94799 58.5285 8.27016 58.5482 7.6565C58.5522 7.04685 58.5285 6.365 58.1263 5.87167C57.7083 5.39037 57.034 5.29812 56.4386 5.25801C55.374 5.22191 54.3093 5.24999 53.2446 5.24196ZM86.8681 0.388834C88.9934 0.388834 91.1188 0.388834 93.2442 0.388834C93.2442 2.94776 93.2442 5.50668 93.2442 8.06561C95.5036 8.06561 97.7631 8.06561 100.022 8.06561C100.022 5.50668 100.022 2.94776 100.022 0.388834C102.14 0.388834 104.257 0.388834 106.379 0.388834C106.379 7.31959 106.379 14.2543 106.379 21.1851C104.257 21.1851 102.14 21.1851 100.022 21.1851C100.022 18.578 100.022 15.975 100.022 13.368C97.7631 13.368 95.5036 13.368 93.2442 13.368C93.2402 15.975 93.2442 18.578 93.2442 21.1851C91.1188 21.1851 88.9934 21.1851 86.8641 21.1851C86.8681 14.2543 86.8681 7.31959 86.8681 0.388834ZM110.216 0.388834C115.657 0.388834 121.099 0.388834 126.54 0.388834C126.576 2.11751 126.611 3.84619 126.647 5.57888C123.295 5.57888 119.943 5.57888 116.592 5.57888C116.592 6.50137 116.592 7.42387 116.592 8.34636C119.364 8.34636 122.136 8.34636 124.908 8.34636C124.908 9.86247 124.904 11.3786 124.908 12.8947C122.136 12.8987 119.364 12.8947 116.592 12.8987C116.592 13.9455 116.592 14.9964 116.592 16.0472C120.081 16.0472 123.567 16.0472 127.057 16.0472C127.017 17.7598 126.982 19.4725 126.946 21.1851C121.367 21.1851 115.791 21.1851 110.216 21.1851C110.216 14.2543 110.216 7.31959 110.216 0.388834ZM129.995 0.388834C132.234 0.388834 134.474 0.388834 136.714 0.388834C138.354 0.404877 140.002 0.316638 141.635 0.533224C143.078 0.721734 144.537 1.10277 145.767 1.91697C146.67 2.50255 147.4 3.35686 147.822 4.35958C148.326 5.55882 148.441 6.89845 148.307 8.18593C148.161 9.4694 147.676 10.7328 146.816 11.6954C146.26 12.3251 145.55 12.7984 144.77 13.0912C146.512 15.7865 148.255 18.4858 149.998 21.1851C147.49 21.1851 144.983 21.1851 142.475 21.1851C141.319 18.9029 140.168 16.6208 139.013 14.3386C138.129 14.3426 137.25 14.3346 136.371 14.3426C136.371 16.6208 136.371 18.9029 136.371 21.1851C134.245 21.1851 132.12 21.1851 129.995 21.1851C129.995 14.2543 129.995 7.31959 129.995 0.388834ZM136.371 9.97878C137.167 9.97878 137.964 9.97878 138.756 9.97878C139.498 9.97076 140.306 9.99884 140.953 9.57369C141.489 9.20068 141.635 8.49878 141.67 7.88111C141.69 7.21931 141.702 6.48132 141.296 5.92381C140.893 5.4024 140.196 5.30213 139.584 5.25801C138.516 5.22191 137.443 5.24999 136.371 5.24196C136.371 6.82224 136.371 8.40252 136.371 9.97878Z" ></path>
  <path d="M0 27.6631C49.9994 27.6631 99.9988 27.6631 149.998 27.6631C150.002 31.7742 149.998 35.8853 149.998 39.9964C99.9988 40.0004 49.9994 40.0004 0 40.0004C0 35.8853 0 31.7742 0 27.6631Z" ></path> -->
<path d="M75.3422 0.240432C78.1891 -0.220816 81.1505 -0.0202732 83.9067 0.858103C83.6938 2.55068 83.4888 4.24326 83.2798 5.93584C81.5132 5.44251 79.6678 5.22993 77.8382 5.32218C77.018 5.37432 76.1702 5.49465 75.4447 5.91178C74.9124 6.21259 74.5023 6.71395 74.2736 7.28349C73.9345 8.10972 73.8517 9.01217 73.8122 9.89455C73.7886 10.8692 73.7886 11.8478 73.9108 12.8145C74.0054 13.5003 74.1671 14.1942 74.522 14.7918C74.7744 15.217 75.1411 15.5699 75.5709 15.8025C76.1702 16.1314 76.8524 16.2638 77.5267 16.332C79.4707 16.5044 81.458 16.2437 83.2798 15.5218C83.5085 17.1101 83.7293 18.7024 83.9619 20.2947C81.2451 21.4899 78.1931 21.8268 75.2712 21.3816C73.9187 21.1691 72.582 20.76 71.399 20.05C70.3265 19.4123 69.4038 18.5179 68.7295 17.455C67.8856 16.1395 67.4243 14.5993 67.2153 13.0471C67.0221 11.5671 67.0063 10.055 67.1995 8.57097C67.4006 7.05888 67.8541 5.55882 68.6743 4.27134C69.317 3.25659 70.1885 2.39426 71.194 1.75653C72.4479 0.954364 73.8872 0.489105 75.3422 0.240432ZM0 0.388834C2.12931 0.388834 4.25468 0.388834 6.384 0.388834C6.384 2.98385 6.384 5.58289 6.384 8.17791C7.06222 8.17791 7.74045 8.17791 8.41867 8.17791C10.063 5.58289 11.7073 2.98787 13.3476 0.388834C15.7924 0.384823 18.2411 0.388834 20.6898 0.388834C18.4659 3.66971 16.238 6.95059 14.014 10.2315C15.7372 12.9067 17.4604 15.5819 19.1875 18.2572C19.8066 19.2358 20.4532 20.1944 21.0565 21.1811C18.4698 21.1811 15.8831 21.1811 13.2964 21.1811C11.6442 18.4738 9.992 15.7664 8.33981 13.0591C7.68524 13.0591 7.03462 13.0591 6.38005 13.0631C6.38399 15.7705 6.38005 18.4738 6.384 21.1811C4.25468 21.1811 2.12931 21.1811 0 21.1811C0 14.2503 0 7.31959 0 0.388834ZM21.6362 0.384823C23.2213 0.384823 24.8025 0.384823 26.3877 0.384823C26.3838 1.85279 26.3877 3.32478 26.3838 4.79676C24.8025 4.79275 23.2213 4.79676 21.6362 4.79275C21.6401 3.32478 21.6362 1.85279 21.6362 0.384823ZM29.1913 0.388834C31.6558 0.388834 34.1163 0.388834 36.5808 0.388834C39.341 7.3236 42.1052 14.2543 44.8654 21.1851C42.4758 21.1851 40.0823 21.1851 37.6928 21.1851C37.3379 20.022 36.983 18.8588 36.6321 17.6917C34.069 17.6957 31.5059 17.6876 28.9468 17.6957C28.5919 18.8588 28.2213 20.022 27.8625 21.1851C25.8988 21.1851 23.9311 21.1851 21.9674 21.1851C21.6835 21.1851 21.3956 21.1771 21.1078 21.2052C21.1393 20.9565 21.2498 20.7279 21.3404 20.4952C23.9587 13.7931 26.573 7.09097 29.1913 0.388834ZM32.752 5.49866C32.0619 7.97737 31.2417 10.4079 30.4768 12.8626C32.0383 12.8626 33.5958 12.8626 35.1573 12.8626C34.6171 11.1058 34.0808 9.34507 33.5446 7.58831C33.3119 6.8062 33.1187 6.01606 32.8782 5.23394C32.8151 5.31416 32.7756 5.4024 32.752 5.49866ZM39.4199 0.384823C41.005 0.380812 42.5902 0.384823 44.1714 0.384823C44.1714 1.85279 44.1714 3.32478 44.1714 4.79275C42.5902 4.79275 41.005 4.79275 39.4199 4.79275C39.4199 3.32478 39.4199 1.85279 39.4199 0.384823ZM46.8606 0.388834C50.1217 0.392845 53.3827 0.376801 56.6397 0.396855C58.1933 0.440975 59.7588 0.629485 61.2177 1.191C62.3258 1.61615 63.3668 2.29399 64.0765 3.27264C64.7784 4.22321 65.1215 5.39839 65.2043 6.57357C65.3344 8.21401 64.9992 9.93867 64.0213 11.2783C63.4299 12.1045 62.59 12.7423 61.6436 13.0872C63.3786 15.7905 65.1294 18.4858 66.8683 21.1851C64.3604 21.1851 61.8486 21.1891 59.3408 21.1851C58.1933 18.9029 57.034 16.6248 55.8866 14.3426C55.0072 14.3346 54.124 14.3386 53.2446 14.3386C53.2446 16.6208 53.2407 18.9029 53.2446 21.1851C51.1153 21.1851 48.99 21.1851 46.8606 21.1851C46.8606 14.2543 46.8606 7.31959 46.8606 0.388834ZM53.2446 5.24196C53.2446 6.82224 53.2446 8.39851 53.2446 9.97878C54.258 9.97477 55.2714 9.99081 56.2888 9.97076C56.8921 9.93867 57.5624 9.86247 58.0119 9.40924C58.4575 8.94799 58.5285 8.27016 58.5482 7.6565C58.5522 7.04685 58.5285 6.365 58.1263 5.87167C57.7083 5.39037 57.034 5.29812 56.4386 5.25801C55.374 5.22191 54.3093 5.24999 53.2446 5.24196ZM86.8681 0.388834C88.9934 0.388834 91.1188 0.388834 93.2442 0.388834C93.2442 2.94776 93.2442 5.50668 93.2442 8.06561C95.5036 8.06561 97.7631 8.06561 100.022 8.06561C100.022 5.50668 100.022 2.94776 100.022 0.388834C102.14 0.388834 104.257 0.388834 106.379 0.388834C106.379 7.31959 106.379 14.2543 106.379 21.1851C104.257 21.1851 102.14 21.1851 100.022 21.1851C100.022 18.578 100.022 15.975 100.022 13.368C97.7631 13.368 95.5036 13.368 93.2442 13.368C93.2402 15.975 93.2442 18.578 93.2442 21.1851C91.1188 21.1851 88.9934 21.1851 86.8641 21.1851C86.8681 14.2543 86.8681 7.31959 86.8681 0.388834ZM110.216 0.388834C115.657 0.388834 121.099 0.388834 126.54 0.388834C126.576 2.11751 126.611 3.84619 126.647 5.57888C123.295 5.57888 119.943 5.57888 116.592 5.57888C116.592 6.50137 116.592 7.42387 116.592 8.34636C119.364 8.34636 122.136 8.34636 124.908 8.34636C124.908 9.86247 124.904 11.3786 124.908 12.8947C122.136 12.8987 119.364 12.8947 116.592 12.8987C116.592 13.9455 116.592 14.9964 116.592 16.0472C120.081 16.0472 123.567 16.0472 127.057 16.0472C127.017 17.7598 126.982 19.4725 126.946 21.1851C121.367 21.1851 115.791 21.1851 110.216 21.1851C110.216 14.2543 110.216 7.31959 110.216 0.388834ZM129.995 0.388834C132.234 0.388834 134.474 0.388834 136.714 0.388834C138.354 0.404877 140.002 0.316638 141.635 0.533224C143.078 0.721734 144.537 1.10277 145.767 1.91697C146.67 2.50255 147.4 3.35686 147.822 4.35958C148.326 5.55882 148.441 6.89845 148.307 8.18593C148.161 9.4694 147.676 10.7328 146.816 11.6954C146.26 12.3251 145.55 12.7984 144.77 13.0912C146.512 15.7865 148.255 18.4858 149.998 21.1851C147.49 21.1851 144.983 21.1851 142.475 21.1851C141.319 18.9029 140.168 16.6208 139.013 14.3386C138.129 14.3426 137.25 14.3346 136.371 14.3426C136.371 16.6208 136.371 18.9029 136.371 21.1851C134.245 21.1851 132.12 21.1851 129.995 21.1851C129.995 14.2543 129.995 7.31959 129.995 0.388834ZM136.371 9.97878C137.167 9.97878 137.964 9.97878 138.756 9.97878C139.498 9.97076 140.306 9.99884 140.953 9.57369C141.489 9.20068 141.635 8.49878 141.67 7.88111C141.69 7.21931 141.702 6.48132 141.296 5.92381C140.893 5.4024 140.196 5.30213 139.584 5.25801C138.516 5.22191 137.443 5.24999 136.371 5.24196C136.371 6.82224 136.371 8.40252 136.371 9.97878Z"/>
<path d="M0 27.6631C49.9994 27.6631 99.9988 27.6631 149.998 27.6631C150.002 31.7742 149.998 35.8853 149.998 39.9964C99.9988 40.0004 49.9994 40.0004 0 40.0004C0 35.8853 0 31.7742 0 27.6631Z" fill="#FFFF01"/>

  </symbol>
  
  <symbol  xmlns="http://www.w3.org/2000/svg" viewBox="0 0 150 23" id="interskol"><path fill-rule="evenodd" clip-rule="evenodd" d="M83.7333 5.36071H96.2509V8.51197C92.3134 8.51197 88.4241 8.51197 84.5349 8.51197C84.2677 8.51197 84.11 8.67266 84.0531 8.9985C84.0531 10.409 84.0531 11.7704 84.0531 13.1808C84.11 13.5067 84.2677 13.6718 84.5874 13.6718H96.2509V16.8142H84.1626C81.9245 16.8722 81.0704 15.6224 81.0179 13.6718V7.97189C81.0179 6.44982 81.9245 5.36071 83.7333 5.36071ZM122.631 1.67829L118.233 0.785583L119.718 2.2407L114.497 3.13341L116.367 4.03058L111.97 6.66407L114.116 6.71763L111.037 11.141L112.96 10.525L111.861 15.06L113.345 13.7745L114.278 18.6442L115.215 17.0195L117.848 20.9965L117.905 19.0906L122.631 22.0588L121.912 20.3225L122.631 20.4341V16.9615C119.057 16.9615 116.201 14.3324 116.201 11.0294C116.201 7.78442 119.057 5.09736 122.631 5.09736V1.67829ZM123.454 1.84791L122.631 1.67829V5.09736C126.2 5.09736 129.108 7.78442 129.108 11.0294C129.108 14.3324 126.2 16.9615 122.631 16.9615V20.4341L126.971 21.2197L125.653 19.8762L130.703 19.0325L128.889 18.2514L133.287 15.6224L131.364 15.3992L134.329 11.141L132.406 11.8686L133.506 6.83368L131.968 8.17274L131.035 3.24946L129.993 4.92775L127.299 0.839146L126.971 2.79864L122.683 0L123.454 1.84791ZM139.615 6.50338L150 16.9793H145.528L137.855 9.16365V16.9793H134.767V7.75317C134.82 5.52587 137.22 4.7135 139.615 6.50338ZM64.8257 5.36071H72.4422V7.97189H67.8083V9.54305H72.4422V12.0426H67.8083V16.8142H64.8257V5.36071ZM72.4422 5.36071H77.3958C80.593 6.17754 81.0704 10.9 77.5053 12.0917L72.4422 12.0426V9.54305H77.0235V7.97189H72.4422V5.36071ZM63.7614 5.52586C59.3421 5.52586 54.9185 5.52586 50.5519 5.52586C49.3781 5.57943 48.6861 6.07042 48.6861 7.64158C48.6861 9.92245 48.6861 12.2569 48.6861 14.5378C48.7386 15.5688 49.5401 16.8722 50.9767 16.8142H63.7614V13.779H51.7213V12.1453L63.7614 12.2033V9.54305H51.8264V7.97189H63.7614V5.52586ZM32.4413 5.41874H47.6218V8.07455H41.8667V16.8722H38.6738V8.07455H32.4413V5.41874ZM16.2973 5.41874H19.3369L19.3895 9.59661H28.4425L28.39 5.41874H31.4821V16.8722H28.4951V12.2033H19.3369L19.3895 16.8722H16.2973V5.41874ZM0 5.4723H3.46006L3.4075 13.1228L9.32025 6.61051C10.1218 5.79814 10.7087 5.4723 11.3437 5.41874L13.849 5.4723C14.5936 5.4723 15.1804 6.07042 15.1804 6.50338L15.233 16.8142L11.9306 16.7651V8.89138H11.5058L5.69814 15.4037C4.7959 16.2741 3.83234 16.7651 2.82498 16.7651H1.80886C0.849685 16.6535 0.0525578 16.0598 0 14.9707V5.4723H0ZM97.3195 5.52586H100.837V10.1947C100.837 9.76177 101.099 9.48949 101.476 9.21721L106.907 5.52586H112.5L104.406 11.2258L112.5 16.9257H106.907L101.529 13.2344C101.209 13.0157 100.837 12.7479 100.837 12.2569V16.9257H97.3195V5.52586Z"></path></symbol>
  <symbol xmlns="http://www.w3.org/2000/svg" viewBox="0 0 150 30" id="skat"><path d="M144.358 4.24241V2.44245H145.563C146.21 2.44245 146.831 2.6109 146.831 3.33642C146.831 4.21835 146.036 4.24241 145.227 4.24241H144.358ZM116.492 6.76789L120.333 6.80879C119.914 9.06716 118.865 12.0306 118.228 14.2721C117.525 16.7459 116.808 19.1474 116.12 21.5911C115.546 23.6244 114.096 27.3326 115.434 28.993C116.481 30.2925 117.422 29.9423 119.354 29.9423C121.005 29.9423 122.657 29.9459 124.309 29.9399L130.907 6.8112L136.907 6.80278L138.277 2.1934L118.021 2.18136C117.699 2.35462 117.818 2.24634 117.641 2.60849C117.607 2.67828 117.507 3.06089 117.478 3.17279L116.492 6.76789ZM61.1166 20.0125L52.8843 20.0366C52.5664 21.0075 51.6536 25.0719 51.0018 25.576C50.4366 26.014 49.6092 26.1295 48.971 25.6085C48.5282 25.0598 52.2881 13.1375 52.7087 11.6648C53.0376 10.5134 53.353 9.3451 53.7055 8.172C53.9715 7.28405 54.2572 5.39987 54.9807 4.93905C55.1761 4.81512 57.6176 3.81288 56.7716 6.53086C56.5206 7.33819 55.8378 9.3102 55.8081 9.99481L64.0071 9.9912C64.6502 8.27547 66.0788 3.76595 65.2229 2.16211L48.517 2.16332C47.4843 2.16211 46.8733 2.01653 46.1089 2.50382C43.9061 3.91154 43.0799 9.03708 42.1585 12.2123C41.3286 15.071 40.5086 17.8576 39.6552 20.738C39.1134 22.562 37.1358 27.7838 38.3615 29.2878C39.1679 30.2768 41.2062 29.9423 43.3298 29.9423H54.4452C55.5855 29.9447 55.9862 30.118 56.8434 29.5272C58.6751 28.2663 59.3529 26.547 59.954 24.3391C60.2904 23.1035 60.9892 21.1627 61.1166 20.0125ZM103.824 19.9259L100.543 20.0269C100.947 18.5121 104.62 9.64589 105.286 8.853L103.824 19.9259ZM87.2693 29.8689L97.4707 29.9447C97.7675 28.922 98.9116 25.7589 99.3902 24.9479L102.809 24.9564L102.051 29.9062C103.215 30.0157 111.46 30.0699 112.141 29.8365L113.737 2.17776L99.5461 2.17174L88.7832 26.4327C88.3466 27.477 87.7604 28.9533 87.2693 29.8689ZM61.0523 29.9399L71.339 29.9423C71.8065 29.8088 72.9543 25.0743 73.1621 24.3524C73.5603 22.9627 74.4583 19.216 74.9419 18.618L74.629 29.9147L84.693 29.9435C84.6584 27.761 84.0338 13.7812 84.3195 12.998L91.3026 2.24273L82.4358 2.19941C82.3183 2.47374 78.2454 8.853 77.4229 9.67236L79.5256 2.21024L69.2648 2.19941C68.7887 2.31492 68.8023 2.93576 68.5784 3.7455L65.0757 15.9084C64.3744 18.2426 61.3875 28.2795 61.0523 29.9399ZM16.9346 5.31565L27.1076 5.34934C26.1107 6.89302 22.6241 10.5675 22.1528 11.577L29.1768 11.5987C28.7933 12.2833 28.0921 13.0762 27.632 13.6537L17.2723 26.784L13.6039 26.7359C14.9149 24.2296 17.3787 21.0063 18.7899 18.3208L9.06718 18.2691L16.9346 5.31565ZM0 29.8172L29.5961 29.8244L37.581 2.30289L8.05175 2.28845L0 29.8172ZM144.358 4.78745H145.465L146.969 7.09635H147.738L146.149 4.78745C146.868 4.66713 147.489 4.25565 147.489 3.33642C147.489 2.40636 146.955 1.89862 145.749 1.89862H143.7V7.09635H144.358V4.78745ZM145.378 0.640092C147.614 0.640092 149.28 2.345 149.28 4.49749C149.28 6.64877 147.614 8.35488 145.378 8.35488C143.141 8.35488 141.475 6.64877 141.475 4.49749C141.475 2.345 143.141 0.640092 145.378 0.640092ZM145.378 0C142.767 0 140.753 1.97081 140.753 4.49749C140.753 7.02416 142.767 8.99497 145.378 8.99497C147.988 8.99497 150 7.02416 150 4.49749C150 1.97081 147.988 0 145.378 0V0Z" ></path></symbol>
  <symbol  xmlns="http://www.w3.org/2000/svg" viewBox="0 0 150 24" id="aurora"><path fill-rule="evenodd" clip-rule="evenodd" d="M9.97532 0H146.423C148.999 0 150.531 2.10756 149.83 4.68292L145.984 18.7936C145.282 21.3689 142.601 23.4765 140.025 23.4765H3.57718C1.00121 23.4765 -0.531494 21.3689 0.170197 18.7936L4.01589 4.68292C4.71758 2.10756 7.39936 0 9.97532 0V0ZM25.8277 16.2689C25.5567 16.2349 25.9793 14.9033 26.0202 14.8798C26.1328 14.8148 26.2856 14.92 26.3054 15.053C26.3364 15.2548 26.1674 16.311 25.8277 16.2689ZM131.589 14.2424C131.842 12.6633 132.239 10.8998 132.578 9.29778C132.679 8.32382 133.613 8.45562 134.332 8.5472C134.779 8.60351 134.624 9.07131 134.584 9.42649C134.424 10.8354 133.997 13.0532 133.577 14.4615C133.46 14.8538 133.23 15.1316 132.609 14.9831C131.962 14.9893 131.462 15.0363 131.589 14.2424ZM96.4325 10.5025C96.341 10.7098 96.2543 10.8621 95.9351 10.9122C95.7773 10.9369 94.6554 10.8948 94.4147 10.8831C94.3417 10.88 94.2761 10.8268 94.3782 10.5063C94.4531 10.2699 94.7507 8.59237 94.8219 8.55772C94.8986 8.52059 96.4406 8.52121 96.5439 8.56143C96.6275 8.59423 96.7042 8.65858 96.7258 8.7514C96.7952 9.05151 96.5377 10.2631 96.4325 10.5025ZM115.419 10.8744H113.815C113.815 10.557 114.199 8.88443 114.269 8.54287C114.912 8.54287 116.296 8.38941 116.181 9.1239C116.122 9.58675 116.056 10.8744 115.419 10.8744ZM85.7568 8.54287C86.6268 8.55524 87.7016 8.54287 88.5716 8.54287C88.7987 8.54287 88.8018 8.45933 88.6917 8.90547C88.3872 10.6597 88.0228 12.5136 87.6552 14.2573C87.5104 14.9454 87.6156 14.9021 87.0884 14.9008C86.7537 14.9008 84.6306 14.9367 84.3627 14.9404C84.2507 15.4348 84.1078 16.2114 83.9989 16.7101H113.296C113.368 16.6656 113.623 15.3086 113.666 15.1118C113.747 14.8024 113.551 14.9008 113.027 14.9008C113.157 14.4188 113.326 13.3966 113.482 12.9028C114.013 14.1917 114.586 15.8383 114.97 16.41C115.079 16.574 115.259 16.6811 115.508 16.7101H141.783C141.869 16.324 142.125 15.209 142.111 14.9299C141.326 14.8705 140.384 14.9157 139.577 14.8946C139.483 14.8532 139.52 14.782 139.546 14.6335C139.977 12.6584 140.369 10.661 140.766 8.67776C140.971 7.77868 140.91 6.96127 139.829 6.76635H128.195C127.437 6.99344 126.843 7.6871 126.717 8.45995C126.371 10.5787 125.888 12.7908 125.466 14.9095C125.321 14.9794 121.499 14.9008 121.018 14.9008C120.358 13.6521 119.637 13.008 118.536 12.6912C119.36 12.6912 119.7 12.7846 120.482 12.6082C121.904 12.1349 121.997 10.2847 122.221 8.95869C122.36 8.13138 122.568 7.1302 121.541 6.76635H105.459C105.408 7.29108 105.218 7.96988 105.098 8.51255C105.861 8.50017 107.588 8.5373 108.246 8.54287C108.242 8.70128 108.171 8.95188 108.137 9.13133C107.754 10.9264 107.429 12.7636 107.068 14.571C107.046 14.6805 107.03 14.9008 106.914 14.9008H93.6264C93.4872 14.9008 93.5472 14.7678 93.5775 14.6725C93.7365 14.1744 93.8405 13.3848 93.9395 12.852C93.9834 12.667 94.0329 12.7512 94.1709 12.7512H100.285C101.213 12.7512 102.041 12.0755 102.31 11.2049C102.566 10.3788 103.579 6.86226 102.05 6.76635H85.9888C85.9307 6.85051 85.7488 7.9575 85.7079 8.13076C85.6745 8.27184 85.565 8.54287 85.7568 8.54287ZM14.3884 10.0638C14.3637 10.1121 14.2548 10.0911 14.2127 10.0911C13.7189 10.0954 13.227 10.0954 12.7332 10.0886C13.1069 9.64491 13.4986 9.19197 13.8841 8.75759C13.9441 8.93889 14.4119 9.99762 14.3884 10.0638ZM72.088 11.4375C72.2904 11.2216 72.3857 11.263 72.6926 11.2748C73.0793 11.2902 75.2574 11.2426 75.4034 11.2983C75.5767 11.453 75.5946 11.5681 75.6497 11.7853C75.4604 11.776 74.8595 11.7005 74.7655 11.8979C74.7475 11.9356 74.4796 12.8329 74.4796 12.8452C74.479 12.8626 74.4809 12.8762 74.4833 12.8867H77.3254C78.1681 12.8768 79.053 12.8749 79.8209 12.8867H81.5739C81.5887 12.8638 81.6042 12.8341 81.6197 12.7939C81.6828 12.6355 81.9557 11.8997 81.8102 11.7964C81.7013 11.7191 80.8518 11.7884 80.6754 11.7958C80.2664 11.8131 79.8524 11.8236 79.4484 11.7475C79.152 10.8769 78.7857 10.0762 78.4249 9.23343C78.1731 8.64435 77.9008 8.06146 77.7059 7.45072C77.6348 7.22549 77.5426 6.83504 77.3093 6.72861C77.3043 6.72675 77.2994 6.7249 77.2944 6.72242H72.6177C72.5892 6.76697 72.575 6.83071 72.549 6.90929C72.4575 7.18341 72.3368 7.49466 72.2953 7.77806C72.7241 7.96431 73.3473 7.82818 73.8101 7.81518C73.6783 8.09611 72.606 9.21919 72.3059 9.58427C71.7972 10.1962 71.2372 10.7562 70.7323 11.3732C70.3214 11.8898 70.3864 11.784 69.7348 11.797C69.4589 11.8026 68.2021 11.8354 68.0264 11.7314C67.8921 11.6522 67.6997 11.32 67.5852 11.1795C67.2969 10.8559 67.1001 10.7575 66.7363 10.5514C66.6886 10.5248 66.6806 10.4994 66.6583 10.4518C67.2789 10.3782 67.5951 10.578 68.1328 10.1319C68.6198 9.70556 68.5468 9.01314 68.7287 8.41602C68.7937 8.21368 68.7955 8.03052 68.8426 7.82261C68.9292 7.43835 68.8964 7.1896 68.6278 6.89011C68.553 6.81276 68.4663 6.75893 68.3723 6.72242H58.2887C58.2819 6.72799 58.2763 6.73356 58.2714 6.73975C58.2237 6.801 58.1854 7.16361 58.1643 7.26633C58.121 7.47609 58.1037 7.59799 58.1 7.81333C58.7441 7.86531 59.3679 7.81828 60.0114 7.8158C59.9736 8.38632 59.7713 9.08183 59.6618 9.6641C59.5541 10.2352 59.4434 10.8051 59.3425 11.3775C59.2682 11.7946 59.2713 11.7729 58.8574 11.7908C58.4917 11.8063 58.126 11.7915 57.7603 11.7915C56.9367 11.7958 56.0716 11.8131 55.2511 11.7865C55.2208 11.7853 55.1268 11.784 55.0989 11.7748C55.0358 11.7265 55.1478 11.3874 55.1676 11.2946C55.3254 10.5428 55.4782 9.78166 55.6255 9.02737C55.701 8.63383 55.7654 8.26751 55.8501 7.87273C55.9931 7.13948 55.753 6.84123 55.2976 6.72242H47.9941C47.2646 6.87278 47.0963 7.46867 46.9577 8.24462C46.9441 8.32011 46.9305 8.39498 46.9156 8.46985C46.8352 8.86897 46.7492 9.2656 46.6545 9.66162C46.4967 10.3188 46.4082 10.9939 46.2783 11.6572C46.2381 11.8583 46.204 11.7921 45.9707 11.7884C45.5234 11.7816 45.0376 11.8144 44.5797 11.8162C44.3576 11.8175 43.5309 11.8292 43.3626 11.7253C43.1955 11.5811 42.9777 11.2519 42.7847 11.0632C42.5248 10.8088 42.3323 10.7191 42.0551 10.5186C41.8751 10.3887 42.1925 10.4277 42.2835 10.4301C42.8014 10.4456 43.1009 10.5025 43.5062 10.0941C43.9913 9.54777 43.995 8.74521 44.1509 8.06393C44.2518 7.62584 44.3415 7.24034 43.9733 6.89197C43.8904 6.814 43.7951 6.75955 43.6918 6.72242H33.6546C33.6466 6.74531 33.6379 6.77625 33.6249 6.81771C33.5859 6.94332 33.4368 7.67472 33.4554 7.76073C33.4876 7.90738 33.7784 7.85602 33.9003 7.85355C34.3087 7.84736 34.696 7.86592 35.1069 7.84427C35.4918 7.82385 35.3934 7.91048 35.308 8.26442C35.1533 8.90981 35.0104 9.54467 34.933 10.2037C34.8804 10.5972 34.7462 10.9505 34.6886 11.3478C34.6657 11.5074 34.6236 11.6337 34.5828 11.7865C34.365 11.836 32.9963 11.8144 32.7135 11.8106C32.4183 11.8069 31.3701 11.7964 31.122 11.7092C30.8584 11.565 30.9302 11.2414 30.9784 10.9889C30.9933 10.9109 31.0087 10.8348 31.0217 10.7562C31.0892 10.3528 31.1993 9.95059 31.2767 9.54282C31.4202 8.78605 31.5675 8.04661 31.7259 7.29355C31.7692 7.08874 31.7903 6.92847 31.7977 6.72242H27.3543C27.1389 6.81771 27.2398 7.07203 27.134 7.42412C26.9855 7.91666 27.0436 7.74093 27.4904 7.86964C27.7961 7.9575 27.7354 8.19697 27.6995 8.45253C27.6005 9.19506 27.3703 9.98958 27.2305 10.7395C27.1915 10.9505 27.0925 11.552 26.9731 11.7123C26.8648 11.8267 26.319 11.7964 26.1489 11.7871C26.0493 11.7816 25.9769 11.7723 25.8797 11.7512C25.8946 11.0025 26.1644 9.94502 26.3122 9.18145C26.3815 8.8238 26.7243 7.26695 26.694 7.02686C26.6736 6.87031 26.5666 6.77749 26.4224 6.72242H21.1424C20.9827 6.84618 21.0415 7.12277 20.9895 7.39194C20.8992 7.86035 20.6919 7.77496 21.4146 7.86345C21.8175 7.91233 22.2345 7.88077 22.6404 7.88758C22.724 7.88882 22.7035 7.87892 22.7134 8.02124C22.7611 8.75078 22.362 9.91903 22.237 10.6894C22.2085 10.8849 22.0427 11.3936 22.133 11.5229C22.2234 11.6529 22.2159 11.6052 22.2636 11.7865C21.8168 11.8756 20.5842 11.81 20.0676 11.797C19.8726 11.7921 19.0812 11.8187 18.9729 11.758C18.8009 11.6615 18.6617 11.1615 18.5806 10.9586C18.4723 10.6845 18.356 10.4159 18.2354 10.1474C17.8672 9.33367 17.5306 8.50389 17.2187 7.66668C17.1853 7.57634 17.1531 
  7.48661 17.1228 7.39565C17.0312 7.11411 17.0238 6.89753 16.7887 6.75398C16.767 6.74222 16.7447 6.7317 16.7218 6.72242H12.0785C11.9641 6.91486 11.7326 7.74464 11.797 7.81085C11.8706 7.88634 13.0172 7.809 13.2332 7.85355C13.1589 8.06765 12.7901 8.40612 12.6187 8.60165C11.7159 9.6313 10.8131 10.6616 9.91468 11.6949C9.75751 11.8762 9.5001 11.81 9.26682 11.8001C8.93825 11.7865 8.58184 11.7809 8.25389 11.7915C8.13756 12.0359 8.0862 12.3527 7.98286 12.6169C7.92841 12.7555 7.92098 12.8378 7.94821 12.8867H11.5872C11.6893 12.7976 11.68 12.6237 11.7432 12.4325C11.8149 12.2166 11.8966 12.021 11.8626 11.7884C11.6918 11.763 11.4641 11.7865 11.2859 11.7871C11.357 11.604 11.4616 11.4388 11.6002 11.2977C11.6361 11.2612 11.8539 11.2816 11.901 11.2816C12.9114 11.2766 13.9213 11.2649 14.9317 11.2698C15.0029 11.4623 15.0864 11.5761 15.0771 11.7884C14.8123 11.7865 14.5475 11.784 14.2832 11.784C14.1669 12.151 14.0537 12.5185 13.9392 12.8867H38.6067C38.6828 12.7914 38.6766 12.5922 38.6939 12.4758C38.7373 12.1912 38.7868 12.0965 38.7694 11.7908C38.2577 11.7259 38.379 11.8527 38.5065 11.2308C38.5442 11.0471 38.5553 10.8608 38.5937 10.6727C38.78 10.7531 38.7305 10.8676 38.809 11.0551C38.9111 11.3001 39.0064 11.4988 39.1011 11.7543C39.2119 12.0538 39.4154 12.6819 39.6908 12.8514C39.7124 12.865 39.7366 12.8762 39.7632 12.8867H63.2507C63.3039 12.8044 63.3014 12.6305 63.3843 12.2716C63.6077 11.3045 62.9172 12.1442 63.0886 11.5409C63.1597 11.2896 63.1449 11.2135 63.1869 10.9877C63.216 10.8348 63.2408 10.7878 63.3348 10.6684C63.4926 11.2172 63.9456 12.3546 64.2636 12.81C64.2915 12.8409 64.328 12.8663 64.3713 12.8867H72.0998C72.2 12.7308 72.3065 12.4517 72.3188 12.4177C72.3535 12.3193 72.5261 11.8484 72.3956 11.7809C72.2099 11.6856 71.5578 11.9994 71.9773 11.5545C72.0138 11.5155 72.0515 11.4765 72.088 11.4375ZM74.1077 9.127C74.2067 9.01871 74.2872 8.87763 74.388 8.79038C74.5526 8.99086 74.8868 9.82746 74.9301 10.0904C74.7451 10.0892 73.3627 10.0626 73.3064 10.088C73.3312 10.101 73.2742 10.0576 73.268 10.0545C73.5477 9.74516 73.8262 9.43453 74.1077 9.127ZM51.2415 11.6937C51.1542 11.7976 50.744 11.7599 50.5998 11.7611C49.9489 11.7679 50.0503 11.6962 50.1821 11.0984C50.2582 10.7556 50.2787 10.4332 50.3554 10.0836C50.4086 9.84478 50.765 8.11467 50.7997 8.04723C50.9438 7.77001 51.6059 7.82447 51.8745 7.8783C51.9531 7.89377 51.9246 7.8783 51.9395 8.00577C51.9822 8.36342 51.8733 8.72727 51.8101 9.07811C51.6938 9.75939 51.5478 10.51 51.3931 11.182C51.3683 11.2896 51.299 11.6058 51.2415 11.6937ZM63.7878 7.91852C63.8162 7.79662 63.9084 7.85107 64.0446 7.85169C64.1776 7.85293 64.7933 7.82199 64.8632 7.88139C65.0897 8.07445 64.9152 8.70066 64.8279 8.92961C64.6473 9.4073 64.3131 9.29345 63.8855 9.2885C63.5279 9.28417 63.4908 9.34171 63.6133 8.89495C63.6987 8.58556 63.7538 8.23843 63.7878 7.91852ZM40.088 7.84798C40.3362 7.87087 40.338 7.96493 40.325 8.21306C40.3145 8.40364 40.2378 8.57195 40.2149 8.78234C40.1617 9.27427 39.9346 9.29221 39.4847 9.30087C39.2966 9.30459 39.106 9.29778 38.9179 9.2953C38.8449 8.98901 38.9074 9.16907 38.9773 8.86154C39.0522 8.53235 39.103 8.15799 39.1723 7.81828C39.4854 7.83189 39.7731 7.8455 40.088 7.84798ZM47.5406 15.9162C47.6037 15.6613 47.6284 15.4682 47.6755 15.2195C47.7522 14.8123 48.1971 14.8198 48.1222 15.1118C48.0665 15.3296 48.1476 15.4311 47.8871 15.5889C47.6885 15.7083 47.6872 16.0487 47.6507 16.1935C47.6235 16.3017 47.4385 16.3277 47.5406 15.9162ZM60.4619 15.3166C60.3771 14.9386 60.8078 14.7393 60.8814 15.024C60.9396 15.2473 60.6104 15.5153 60.4619 15.3166ZM41.3516 16.6804C41.4828 16.7405 41.5403 16.7021 41.6839 16.7015C43.4202 16.6971 45.1626 16.6978 46.8995 16.7033C48.3283 16.7083 49.7218 16.7436 51.153 16.7046C52.0106 16.6817 52.8812 16.7324 53.7407 16.7163C54.487 16.7027 55.2375 16.7275 55.99 16.7169C56.8847 16.7046 57.7652 16.7256 58.655 16.7188C59.556 16.712 64.25 16.8104 64.6033 16.7046C64.8007 16.6452 64.7809 16.3413 64.8193 16.1539C64.8496 16.0029 64.8366 15.9138 64.8713 15.7702C64.9003 15.6502 65.0346 15.011 65.0928 14.9528C65.2017 14.8451 65.3508 14.8823 65.3787 15.0487C65.4108 15.2362 65.2617 15.7294 65.2233 15.9589C65.1262 16.5449 64.87 16.7535 65.62 16.7238C65.7753 16.7169 66.3477 16.7689 66.4281 16.6662C66.6707 16.3556 66.6478 14.727 67.0543 14.9033C67.2505 14.9887 67.0908 15.3736 67.0611 15.5413C67.0215 15.7665 66.7938 16.48 66.9689 16.6285C67.0574 16.7033 68.2553 16.6879 69.7726 16.6978C72.2143 16.7139 75.3892 16.7207 75.4022 16.7126C75.56 16.6192 75.6423 15.8946 75.6992 15.6755C75.7531 15.4664 75.7691 14.8953 76.0365 14.8977C76.3007 14.9002 76.1088 15.4522 76.076 15.5914C76.0346 15.7702 75.8316 16.5226 76.0024 16.6445C76.1429 16.7448 76.719 16.7095 76.9324 16.7169C77.3204 16.7306 77.743 16.7188 78.1384 16.7225C78.5029 16.7262 81.6556 16.7466 81.744 16.707C81.9025 16.6359 81.8659 16.389 81.8424 16.2541C81.6283 16.2417 80.5523 16.3154 80.4675 16.2108C80.4279 16.1613 80.6395 15.277 80.6587 15.0945C80.7014 14.6929 80.8233 15.0073 80.9229 15.0648C81.0751 15.1527 81.6698 15.1793 81.8034 15.0196C81.8777 14.9305 81.9823 14.472 81.7756 14.4374C81.7385 14.4312 81.2336 14.4479 81.1401 14.4473C80.2485 14.4448 79.3475 14.4268 78.4577 14.4473C78.3476 14.4497 78.2275 14.4832 78.196 14.6057C78.0902 15.0172 78.0568 15.1211 78.6712 15.1149C79.2188 15.11 79.1081 14.9441 79.2114 14.912C79.4168 14.8476 79.061 16.1607 79.0357 16.1916C78.9521 16.2918 78.626 16.2535 78.4794 16.2547C78.3426 16.256 77.4745 16.2733 77.4108 16.23C77.2876 16.1477 77.4547 15.6861 77.4887 15.5376C77.5586 15.2356 77.7437 14.4949 77.2672 14.4442C76.5878 14.3712 75.4251 14.4572 74.6646 14.4361C74.5112 14.4318 73.9586 14.4089 73.8571 14.5228C73.7216 14.6756 73.7637 14.8984 74.0347 14.92C74.4208 14.9503 74.4753 14.7362 74.3515 15.498C74.1944 16.4583 74.1616 16.2411 73.2934 16.2628C72.7588 16.2764 72.958 16.147 72.6128 16.1242C72.1901 16.0963 71.7001 16.0678 71.2985 16.2139C71.0392 16.3079 71.0361 16.1904 71.124 15.967C71.2168 15.7325 71.4755 15.8309 71.7038 15.8451C71.8857 15.8568 72.3269 15.9088 72.4445 15.743C72.5119 15.6489 72.7 15.3501 72.481 15.3228C72.3288 15.3043 71.8121 15.3334 71.6147 15.3327C71.5021 15.3321 71.3956 15.329 71.2836 15.3222C71.2539 15.1391 71.27 15.0976 71.322 14.9231C71.6289 14.9386 71.7904 15.037 72.1258 15.0407C72.2768 15.0419 73.028 15.0722 73.0892 14.9466C73.1387 14.8445 73.247 14.4739 73.062 14.4572C72.6586 14.4207 69.4966 14.4275 69.4205 14.4516C69.3017 14.4893 69.1847 14.8674 69.3462 14.9126C69.4972 14.9547 69.9217 14.8278 69.9285 14.9881C69.9341 15.1162 69.7317 15.9992 69.6829 16.1829C69.6476 16.3166 69.1618 16.2665 69.0387 16.2677C68.7665 16.2702 68.4527 16.2659 68.4008 16.2263C68.2622 16.1211 68.5041 15.3798 68.5449 15.1793C68.6972 14.4287 68.3878 14.4355 67.7653 14.4336C67.5042 14.433 67.1131 14.4095 66.8866 14.5543C66.7647 14.6323 66.7462 14.4931 66.5172 14.4541C66.2666 14.412 65.5513 14.4485 65.2735 14.4714C65.0705 14.4887 64.7654 14.4299 64.5241 14.4312C64.1003 14.4324 63.7148 14.4559 63.2841 14.4429C63.0824 14.4367 63.0112 14.5054 63.0075 14.7121C62.9982 15.277 63.7779 14.4887 63.6127 15.222C63.5353 15.5654 63.5001 15.9125 63.3868 16.2454C62.6313 16.2869 61.9234 16.2337 61.1741 16.2553C60.8684 16.264 60.606 16.2659 60.301 16.2275C60.2719 15.7052 60.4328 15.8284 60.9012 15.8482C61.1858 15.8606 61.8219 15.92 62.023 15.691C62.2625 15.4181 62.5174 14.5772 62.01 14.4541C61.7409 14.3885 60.6073 14.4652 60.2168 14.4522C60.0009 14.4448 58.6185 14.3922 58.5344 14.5054C58.4836 14.5741 58.4112 14.8717 58.6012 14.9014C59.1736 14.9912 59.2039 14.7016 59.0492 15.4429C59.0028 15.6663 58.9873 16.2541 58.7151 16.2578C58.488 16.2609 56.86 16.303 56.7319 16.2411C56.5716 16.1644 56.8692 14.9695 56.8822 14.9516C57.0079 14.7826 57.8531 15.2028 57.7708 14.5506C57.7491 14.3767 57.5394 14.4429 57.3797 14.4473C56.9132 14.4596 56.3897 14.4275 55.9132 14.4262C55.7944 14.4262 54.9585 14.4151 54.8984 14.4992C54.8341 14.589 54.7871 14.8835 54.9702 14.9225C55.2518 14.9825 55.5018 14.7449 55.4764 15.0865C55.464 15.2511 55.3248 15.9255 55.279 16.0753C55.2115 16.2962 55.089 16.2813 54.6392 16.285C53.9672 16.29 53.7717 16.3092 53.9567 15.5957C54.0229 15.3383 54.3614 14.5209 53.9802 14.4757C53.8249 14.4578 52.7049 14.4361 52.5743 14.4943C52.4481 14.5506 52.4382 14.795 52.5551 14.9095C52.747 15.0976 52.6814 15.0444 52.6257 15.3377C52.5966 15.4918 52.484 16.4094 52.1987 16.264C52.023 16.1749 52.2105 15.6081 52.2433 15.441C52.2816 15.2455 52.466 14.5531 52.2637 14.4702C52.1313 14.4157 50.3808 14.4052 50.3362 14.5067C50.2855 14.6236 50.2638 14.8755 50.421 14.9157C50.4928 14.9342 50.7663 14.9243 50.8708 14.9324C50.9401 15.1384 50.7403 16.1737 50.6499 16.2256C50.486 16.3191 49.5083 16.2578 49.267 16.2399C49.3004 15.8203 49.5015 16.1341 49.7799 16.0097C49.9705 15.9249 49.856 15.5821 49.7032 15.5679C49.4396 15.5431 49.3177 15.7201 49.4452 15.2325C49.5058 15.0023 49.538 14.7703 49.4396 14.5444C49.3691 14.3817 46.8253 14.412 46.6539 14.503C46.1471 14.7727 46.2907 16.1904 45.9949 16.2628C45.8829 16.2906 45.4039 16.2553 45.279 16.2108C44.977 16.1037 44.9603 16.1297 44.6348 16.1322C44.4585 16.1334 43.969 16.113 43.8217 16.1706C43.659 16.2343 43.4765 16.3698 43.526 16.0771C43.5847 15.7337 43.7326 15.8191 44.0352 15.8408C44.2437 15.8562 44.7091 15.9107 44.8501 15.7269C45.2208 15.2455 44.6651 15.3309 44.3446 15.3408C44.2388 15.3439 43.7302 15.3878 43.6875 15.2764C43.6547 15.1917 43.7178 14.9225 43.8323 14.9002C43.9542 14.8767 44.1287 15.0271 44.3223 15.0357C44.4127 15.0394 45.399 15.0394 45.4145 15.0351C45.5432 14.9961 45.5939 14.5531 45.5753 14.5135C45.5364 14.4312 42.0143 14.3903 41.854 14.4584C41.7451 14.5042 41.63 14.8105 41.7519 14.8724C41.932 14.9633 42.3231 14.8105 42.3398 14.9491C42.354 15.0629 42.1504 16.1526 42.0904 16.2157C41.9345 16.3803 41.531 16.1458 41.4407 16.2733C41.3565 16.3927 41.3318 16.54 41.3516 16.6804ZM9.93015 14.4491C9.82743 14.4157 8.36093 14.4287 8.31514 14.4739C8.29782 14.5098 8.29844 14.5351 8.28544 14.5784C8.22047 14.7932 8.21861 14.7913 8.29844 14.9101C8.79531 14.8637 8.87019 14.8668 8.89432 15.1186C8.90793 15.2591 
  8.98218 16.2164 8.97476 16.23C8.92773 16.3191 8.19139 16.2702 8.04907 16.2553C7.89933 16.2392 7.89995 16.3686 7.89066 16.4911C7.86406 16.8277 8.093 16.738 8.36217 16.7262C8.90607 16.7033 9.43946 16.7095 9.98275 16.7238C10.3707 16.7343 10.4771 16.7182 10.6479 16.3302C10.7587 16.0777 10.8744 15.7739 10.9567 15.5103C10.9901 15.4045 11.0303 15.3346 11.078 15.4893C11.1423 15.6978 11.0211 16.4967 11.1764 16.6662C11.2587 16.7565 11.5612 16.7312 11.6807 16.7324C15.3964 16.7862 19.1567 16.7219 22.878 16.7219C23.5841 16.7219 24.2907 16.7219 24.9973 16.7219C26.066 16.7219 27.1346 16.7219 28.2032 16.7219C28.5473 16.7219 28.8913 16.7219 29.2353 16.7219C30.7093 16.7213 32.1832 16.7077 33.6565 16.725C34.0544 16.7015 33.9492 16.579 34.0166 16.2034C34.0525 15.9713 34.1707 14.8377 34.5147 14.8816C34.7424 14.9107 34.5116 15.6935 34.4838 15.821C34.4312 16.0604 34.3767 16.311 34.4163 16.5567L34.4337 16.5975C34.5537 16.7473 35.0617 16.7225 35.2591 16.725C35.8767 16.7318 36.493 16.733 37.1099 16.7312C38.1686 16.7287 39.356 16.7318 40.4061 16.72C40.5602 16.7188 40.6548 16.6588 40.6431 16.371C40.6313 16.0852 40.2632 16.3587 40.0503 16.2498C39.929 16.1879 40.093 15.6848 40.1221 15.5574C40.1672 15.3575 40.1122 15.3631 39.5837 15.3668C39.421 15.368 38.7292 15.36 38.6271 15.4045C38.5312 15.446 38.4687 15.7003 38.543 15.7783C38.6457 15.8853 38.7292 15.8024 38.6259 16.0573C38.5083 16.3475 38.142 16.4212 38.2645 15.907C38.3258 15.6489 38.387 14.8154 38.7193 14.8804C38.9322 14.9219 38.6642 15.1712 39.072 15.1811C39.2304 15.1848 40.0398 15.2207 40.1301 15.1589C40.3374 15.0159 40.3486 14.4999 39.8962 14.4367L39.8121 14.4293C39.5565 14.4237 39.2935 14.4386 39.0293 14.4336C38.7515 14.4287 37.5121 14.3978 37.3425 14.4961C36.8914 14.7591 37.0022 16.0728 36.7436 16.2312C36.6155 16.3098 36.2436 16.2857 36.0747 16.2832C35.7176 16.2776 35.7981 16.1996 35.8649 15.9113C35.9348 15.6205 36.2213 14.7133 35.9293 14.5141C35.5704 14.3316 34.5884 14.4801 34.1156 14.4535C33.8062 14.4355 32.5433 14.3755 32.3249 14.4689C32.2327 14.5215 32.0966 14.8563 32.3701 14.8971C32.513 14.9188 32.7327 14.8532 32.8471 14.9417C32.9041 15.0184 32.8508 15.1867 32.8298 15.2721C32.7896 15.4478 32.6615 16.2677 32.508 16.272C32.2413 16.2795 30.4574 16.298 30.3423 16.2634C30.2019 16.2213 30.4754 15.0209 30.5527 14.9386C30.7359 14.7443 31.2389 15.0914 31.3961 14.7523C31.4431 14.6267 31.458 14.4485 31.2804 14.4374C30.424 14.3835 29.4779 14.4398 28.6054 14.4405C28.5776 14.5351 28.4705 14.5302 28.4575 14.7548C28.4718 14.9274 28.593 14.9163 28.7453 14.9021C29.025 14.8748 29.1172 14.8544 29.1054 15.0314C29.0881 15.2894 28.9315 16.0264 28.8071 16.2689C28.7001 16.2689 28.5937 16.2689 28.4872 16.2683C28.348 16.272 27.621 16.2974 27.5498 16.2442C27.3994 16.0431 27.8196 15.05 27.7379 14.7102C27.6723 14.438 27.5349 14.4634 27.3029 14.4429C27.1043 14.4256 26.7794 14.4386 26.5715 14.4374C25.8939 14.433 25.204 14.4207 24.5277 14.4454C24.2356 14.4559 23.9454 14.3254 23.8848 14.7195C23.8272 15.0896 24.5413 14.6855 24.5487 15.0011C24.5506 15.0871 24.4182 15.7325 24.394 15.8643C24.3204 16.2646 24.2839 16.2838 23.8656 16.2925C23.7555 16.2949 23.232 16.2968 23.1472 16.2541C22.9523 16.1569 23.245 15.98 22.8038 15.9806C22.4876 15.9812 22.0699 15.9484 21.7729 15.9979C21.6355 16.0412 21.6646 16.3383 21.3719 16.2634C21.2104 16.1941 21.3422 15.8228 21.3726 15.6972C21.3973 15.5691 21.4889 14.9615 21.5817 14.9151C21.7741 14.8179 22.2704 14.9633 22.3929 14.8736C22.4938 14.8006 22.5526 14.4838 22.4783 14.4671C22.3063 14.4287 21.8218 14.4497 21.6188 14.4429C21.3509 14.4336 19.6808 14.4188 19.6084 14.4473C19.4779 14.4986 19.3999 14.8662 19.5595 14.907C19.7303 14.9503 20.1257 14.7808 20.1146 15.0128C20.1047 15.2176 20.0162 15.5549 19.9797 15.7715C19.9308 16.0629 19.9091 16.2256 19.8145 16.2819C19.7495 16.3203 18.5577 16.3277 18.5107 16.285C18.343 16.1341 18.2583 16.1563 18.038 16.1458C17.8375 16.1359 17.2639 16.1291 17.1011 16.1792C17.0034 16.2089 16.7682 16.3649 16.707 16.2009C16.6804 16.1285 16.7571 15.8766 16.8592 15.8395C16.9198 15.8166 17.2107 15.8575 17.3091 15.8624C17.4897 15.8705 18.0256 15.9101 18.1166 15.717C18.1456 15.6551 18.1642 15.5994 18.1976 15.5382C18.3282 15.2851 18.1407 15.3259 17.9223 15.3259C17.7131 15.3265 17.1488 15.3829 17.0003 15.3315C16.8679 15.2857 16.9081 15.1106 16.9372 15.0042C17.0077 14.7443 17.3412 15.0159 17.499 15.0283C17.8653 15.0568 18.2125 15.0314 18.6561 15.0425C18.7421 15.0444 18.8028 14.6719 18.8158 14.6174C18.8622 14.3928 18.718 14.433 18.5324 14.4386C18.0237 14.4547 17.4675 14.4405 16.9533 14.4405C16.3042 14.4405 15.6551 14.4411 15.006 14.4405C14.9769 14.5852 14.9484 14.7245 14.9286 14.8705C15.3048 14.8841 15.483 14.8427 15.54 14.912C15.5963 14.98 15.3345 16.2058 15.2949 16.2405C15.2293 16.2974 12.9628 16.3073 12.8873 16.2312C12.7957 16.139 12.9974 15.8451 13.0506 15.7226C13.1237 15.5561 13.2029 15.3921 13.2666 15.222C13.3371 15.0308 13.3842 14.967 13.5908 14.9373C13.8959 14.9163 14.1972 14.9875 14.235 14.7115C14.2424 14.657 14.2733 14.6205 14.2752 14.5692C14.2795 14.4516 14.149 14.4689 14.0648 14.4739C13.7486 14.4943 12.6769 14.3792 12.589 14.6125C12.5556 14.7065 12.5463 14.7604 12.5698 14.8588C12.7177 14.8934 12.8285 14.9367 12.7784 15.1205C12.7394 15.2603 12.3446 16.2671 12.3223 15.923C12.3038 15.6434 12.3397 14.9392 12.2431 14.618C12.1881 14.4349 12.1392 14.4646 11.9715 14.4491C11.7958 14.4213 11.3527 14.4349 11.1553 14.4398C11.0279 14.4429 10.9357 14.4683 10.9103 14.5704C10.7649 15.0302 10.5198 15.4317 10.3478 15.8822C10.1424 16.4187 10.2482 14.5525 9.93015 14.4491ZM9.86394 1.76105C8.08743 1.76105 6.18655 3.31975 5.7169 5.04429L1.87121 19.1543C1.48076 20.5868 2.18679 21.7154 3.68856 21.7154H140.136C141.913 21.7154 143.813 20.1567 144.283 18.4328L148.129 4.32217C148.519 2.8897 147.813 1.76105 146.311 1.76105H9.86394ZM9.78041 3.08152C8.62886 3.08152 7.29478 4.20461 6.9922 5.3147L3.14713 19.4247C2.9813 20.0324 3.12176 20.395 3.77209 20.395H140.22C141.371 20.395 142.705 19.2719 143.008 18.1618L146.853 4.05177C147.019 3.44413 146.878 3.08152 146.228 3.08152H9.78041Z" ></path></symbol>


  

</svg>


<svg class="icon"><use xlink:href="#pecanta"></use></svg>
<svg class="icon"><use xlink:href="#Patriot"></use></svg>
<svg class="icon"><use xlink:href="#metabo"></use></svg>
<svg class="icon"><use xlink:href="#Karher"></use></svg>
<svg class="icon"><use xlink:href="#interskol"></use></svg>
<svg class="icon"><use xlink:href="#skat"></use></svg>
<svg class="icon"><use xlink:href="#aurora"></use></svg>



<svg class="icon"><use xlink:href="#phone"></use></svg>
<svg class="icon"><use xlink:href="#inst"></use></svg>
<svg class="icon"><use xlink:href="#telega"></use></svg>
<svg class="icon">
  <use xlink:href="#Makita"></use>
</svg><svg class="icon">
  <use xlink:href="#Dremel"></use>
</svg><svg class="icon">
  <use xlink:href="#Sthil"></use>
</svg><svg class="icon">
  <use xlink:href="#Bosch"></use>
</svg>